<svg xmlns="http://www.w3.org/2000/svg" width="679.529" height="676.224" viewBox="0 0 679.529 676.224">
  <g id="checkin_icon" transform="translate(-1354.994 -17219.742)">
    <path id="Path_133" data-name="Path 133" d="M4721.644,4560.945a160.8,160.8,0,1,0,160.8,160.8,160.8,160.8,0,0,0-160.8-160.8Zm70.808,138.972-72.367,72.367a20.133,20.133,0,0,1-28.472,0l-40.674-40.674a20.134,20.134,0,1,1,28.473-28.473l26.573,26.575,58.131-58.165a20.134,20.134,0,1,1,28.473,28.473Zm0,0" transform="translate(-3035.647 12836.125)" fill="#bc002d"/>
    <path id="Path_134" data-name="Path 134" d="M657.776,318.821H628.558A290.315,290.315,0,0,0,359.089,49.352V20.134a20.134,20.134,0,0,0-40.234,0V49.352A290.315,290.315,0,0,0,49.386,318.821H20.134a20.134,20.134,0,1,0,0,40.234H49.352A290.315,290.315,0,0,0,318.821,628.524v29.218a20.134,20.134,0,0,0,40.234,0V628.524A290.315,290.315,0,0,0,628.524,359.055h29.218a20.134,20.134,0,1,0,0-40.234ZM359.055,588.189V560.462a20.134,20.134,0,1,0-40.234,0v27.727a250.454,250.454,0,0,1-229.1-229.1h27.727a20.134,20.134,0,1,0,0-40.234H89.721a250.454,250.454,0,0,1,229.1-229.134v27.727a20.134,20.134,0,1,0,40.234,0V89.721a250.454,250.454,0,0,1,229.1,229.1H560.428a20.134,20.134,0,1,0,0,40.234h27.727A250.454,250.454,0,0,1,359.089,588.189Zm0,0" transform="translate(1355.82 17218.916)" fill="#bc002d"/>
  </g>
</svg>
