<svg xmlns="http://www.w3.org/2000/svg" width="87.9" height="96.203" viewBox="0 0 87.9 96.203">
  <g id="Group_1" data-name="Group 1" transform="translate(-739.1 -323.972)">
    <g id="noun_support_223728" transform="translate(733 321.975)">
      <path id="Path_67" data-name="Path 67" d="M20.6,52.3a11.691,11.691,0,0,1-.3-6.9,13.112,13.112,0,0,1,3.5-6.1A26.923,26.923,0,0,1,27,36.6,11.992,11.992,0,0,1,30.2,35h0a9.291,9.291,0,0,1,2.9-.5A11.723,11.723,0,0,1,40.3,36a9.186,9.186,0,0,1,3.5,3.3s6.4.4,3.6,13.8c.9.3,1.5,1.5.5,5-1.2,4.3-2.3,4.6-3,4.1-.8,4.7-3.3,10.7-11.4,11-8.2-.6-10.8-6.8-11.6-11.5-.7-.1-1.5-1-2.5-4.3C18.1,52.9,19.4,52.2,20.6,52.3ZM33.7,98.2H94c-.1-9.7.3-14.8-6-17.1a54.285,54.285,0,0,1-9.1-4.4L74.5,90.6l-.6,1.9-2-5.6c4.5-6.3-.3-6.6-1.2-6.6h0c-.8,0-5.7.3-1.2,6.6l-2,5.6-.6-1.9L62.5,76.7a35.965,35.965,0,0,1-5.3,2.8,10.6,10.6,0,0,0-3-1.6,62.783,62.783,0,0,1-10.8-5.2L38.2,89.2l-.7,2.2-2.3-6.6c5.4-7.5-.4-7.8-1.4-7.8h0c-1,0-6.8.4-1.4,7.8l-2.3,6.6-.7-2.2L24,72.6a68.015,68.015,0,0,1-10.8,5.2c-7.5,2.7-7,8.8-7.1,20.3H33.7ZM58.6,63.8c.8,2.8,1.5,3.6,2.1,3.6.6,4,2.8,9.2,9.7,9.7,6.8-.3,8.9-5.3,9.6-9.3.6.4,1.5.2,2.5-3.5.8-3,.3-4-.4-4.2,2.4-11.3-3-11.7-3-11.7a6.87,6.87,0,0,0-3-2.7A10.454,10.454,0,0,0,70,44.4a6.042,6.042,0,0,0-2.4.5h0a8.67,8.67,0,0,0-2.7,1.4,11.777,11.777,0,0,0-2.7,2.3,10.7,10.7,0,0,0-3,5.2,9.63,9.63,0,0,0,.2,5.8C58.7,59.5,57.5,60,58.6,63.8Zm3.5-48.3a5.8,5.8,0,1,0,8.2.2,5.652,5.652,0,0,0-8.2-.2ZM78.7,32.2A17.779,17.779,0,0,1,57.1,35h0a10.445,10.445,0,0,1-7.6,2.1.685.685,0,0,1-.2-1.3A9.023,9.023,0,0,0,53,31.7l-.2-.1a17.8,17.8,0,1,1,25.9.6Zm.6-11.4V19.1A1.11,1.11,0,0,0,78.2,18H76.5a9.917,9.917,0,0,0-1.6-4l1.2-1.2a1.115,1.115,0,0,0,0-1.6L74.9,10a1.115,1.115,0,0,0-1.6,0l-1,1a9.7,9.7,0,0,0-3.9-1.7V7.6a1.11,1.11,0,0,0-1.1-1.1H65.6a1.11,1.11,0,0,0-1.1,1.1V9.3a9.917,9.917,0,0,0-4,1.6L59.3,9.7C58.7,9,58,9,57.6,9.5l-1.2,1.2a1.115,1.115,0,0,0,0,1.6l1.2,1.2a10.309,10.309,0,0,0-1.8,4H54.1A1.11,1.11,0,0,0,53,18.6v1.7a1.11,1.11,0,0,0,1.1,1.1h1.6a10.953,10.953,0,0,0,1.6,4.1L56,26.6a1.115,1.115,0,0,0,0,1.6l1.2,1.2a1.115,1.115,0,0,0,1.6,0L60,28.3A8.849,8.849,0,0,0,64,30v1.6a1.11,1.11,0,0,0,1.1,1.1h1.7a1.11,1.11,0,0,0,1.1-1.1V29.9a9.917,9.917,0,0,0,4-1.6l1.2,1.2a1.115,1.115,0,0,0,1.6,0l1.2-1.2a1.115,1.115,0,0,0,0-1.6l-1.2-1.2a10.105,10.105,0,0,0,1.7-4h1.7a.756.756,0,0,0,1.2-.7Z" fill="#50687f"/>
    </g>
  </g>
</svg>
