<svg xmlns="http://www.w3.org/2000/svg" width="12" height="14" viewBox="0 0 12 14">
  <g id="Group_1" data-name="Group 1" transform="translate(-1638 -733)">
    <g id="noun_Document_38697" transform="translate(1636 733)">
      <path id="Path_1" data-name="Path 1" d="M13.5,2.5l-2-2a1.752,1.752,0,0,0-1-.5H3A.979.979,0,0,0,2,1V13a.979.979,0,0,0,1,1H13a.979.979,0,0,0,1-1V3.5A1.746,1.746,0,0,0,13.5,2.5Zm-2,9.5h-7a.5.5,0,0,1,0-1h7a.5.5,0,0,1,0,1Zm0-2h-7a.5.5,0,0,1,0-1h7a.5.5,0,0,1,0,1Zm0-2h-7a.5.5,0,0,1,0-1h7a.5.5,0,0,1,0,1ZM13,5H9V1a.5.5,0,0,1,1,0V4h3a.5.5,0,0,1,0,1Z" fill="#50687f"/>
    </g>
  </g>
</svg>
