<svg xmlns="http://www.w3.org/2000/svg" width="64.6" height="64.1" viewBox="0 0 64.6 64.1">
  <g id="Group_12" data-name="Group 12" transform="translate(-818.7 -377)">
    <g id="noun_lead_management_2019386" data-name="noun_lead management_2019386" transform="translate(818 376)">
      <g id="Group_11" data-name="Group 11">
        <g id="Group_4" data-name="Group 4">
          <path id="Path_85" data-name="Path 85" d="M33,41a4.7,4.7,0,0,0-4.7,4.7c0,2.7,2.1,5.9,4.7,5.9s4.7-3.2,4.7-5.9A4.7,4.7,0,0,0,33,41Z" fill="#cb385b"/>
        </g>
        <g id="Group_5" data-name="Group 5">
          <path id="Path_86" data-name="Path 86" d="M64.7,48.4a3.181,3.181,0,0,0-1.5-2.5,19.856,19.856,0,0,0-4.1-1.7,1,1,0,0,0-1.1.5l-2.5,4.5h-.8l-2.5-4.5a1,1,0,0,0-1.1-.5A17.829,17.829,0,0,0,47,45.9a3.29,3.29,0,0,0-1.6,2.5L44.7,57a1.33,1.33,0,0,0,.3.8,1.08,1.08,0,0,0,.7.3H64.3a.908.908,0,0,0,.7-.3,1.136,1.136,0,0,0,.3-.8Z" fill="#cb385b"/>
        </g>
        <g id="Group_6" data-name="Group 6">
          <path id="Path_87" data-name="Path 87" d="M50.3,38.8c0,2.7,2.1,5.9,4.7,5.9s4.7-3.2,4.7-5.9A4.7,4.7,0,0,0,55,34.1,4.632,4.632,0,0,0,50.3,38.8Z" fill="#cb385b"/>
        </g>
        <g id="Group_7" data-name="Group 7">
          <path id="Path_88" data-name="Path 88" d="M6.3,38.8c0,2.7,2.1,5.9,4.7,5.9s4.7-3.2,4.7-5.9a4.7,4.7,0,1,0-9.4,0Z" fill="#cb385b"/>
        </g>
        <g id="Group_8" data-name="Group 8">
          <path id="Path_89" data-name="Path 89" d="M19.2,46a19.855,19.855,0,0,0-4.1-1.7,1,1,0,0,0-1.1.5l-2.5,4.5h-.8L8.2,44.8a1,1,0,0,0-1.1-.5A17.829,17.829,0,0,0,3,46a3.29,3.29,0,0,0-1.6,2.5L.7,57a1.33,1.33,0,0,0,.3.8,1.08,1.08,0,0,0,.7.3H20.3a.908.908,0,0,0,.7-.3,1.135,1.135,0,0,0,.3-.8l-.6-8.6A2.789,2.789,0,0,0,19.2,46Z" fill="#cb385b"/>
        </g>
        <g id="Group_9" data-name="Group 9">
          <path id="Path_90" data-name="Path 90" d="M41.2,52.9a19.856,19.856,0,0,0-4.1-1.7,1,1,0,0,0-1.1.5l-2.5,4.5h-.8l-2.5-4.5a1,1,0,0,0-1.1-.5A17.829,17.829,0,0,0,25,52.9a3.29,3.29,0,0,0-1.6,2.5L22.8,64a1.33,1.33,0,0,0,.3.8,1.08,1.08,0,0,0,.7.3H42.4a.908.908,0,0,0,.7-.3,1.135,1.135,0,0,0,.3-.8l-.6-8.6A3.131,3.131,0,0,0,41.2,52.9Z" fill="#cb385b"/>
        </g>
        <g id="Group_10" data-name="Group 10">
          <path id="Path_91" data-name="Path 91" d="M10,30v2.1a3.4,3.4,0,0,1,1-.1,3.4,3.4,0,0,1,1,.1V30l4.3-4.3a.99.99,0,0,0-1.4-1.4L12,27.2V18h5v1.3a1,1,0,0,0,1,1l2.2.1a12.66,12.66,0,0,0,1.3,3.2L20,25.3a1.065,1.065,0,0,0,0,1.4L23.3,30a.967.967,0,0,0,1.4,0l1.6-1.5a12.66,12.66,0,0,0,3.2,1.3l.1,2.3a1.075,1.075,0,0,0,1,1H32v6c.3,0,.7-.1,1-.1a3.4,3.4,0,0,1,1,.1v-6h1.3a1,1,0,0,0,1-1l.1-2.3a12.66,12.66,0,0,0,3.2-1.3L41.3,30a.967.967,0,0,0,1.4,0L46,26.7a.967.967,0,0,0,0-1.4l-1.5-1.6a12.66,12.66,0,0,0,1.3-3.2l2.2-.1a1.075,1.075,0,0,0,1-1V18h5v9.2l-2.9-2.9a.99.99,0,0,0-1.4,1.4L54,30v2.1a5.05,5.05,0,0,1,2,0V30l4.3-4.3a.99.99,0,0,0-1.4-1.4L56,27.2V17a.945.945,0,0,0-1-1H49V14.7a1,1,0,0,0-1-1l-2.2-.1a17.88,17.88,0,0,0-1.3-3.2L46,8.7a1.065,1.065,0,0,0,0-1.4L42.7,4a.967.967,0,0,0-1.4,0L39.6,5.5a12.66,12.66,0,0,0-3.2-1.3L36.3,2a1.075,1.075,0,0,0-1-1H30.6a1,1,0,0,0-1,1l-.1,2.2a17.88,17.88,0,0,0-3.2,1.3L24.7,4a1.065,1.065,0,0,0-1.4,0L20,7.3a.967.967,0,0,0,0,1.4l1.5,1.7a12.66,12.66,0,0,0-1.3,3.2l-2.2.1a1.075,1.075,0,0,0-1,1V16H11a.945.945,0,0,0-1,1V27.2L7.1,24.3a.99.99,0,0,0-1.4,1.4ZM33,11.1A5.9,5.9,0,1,1,27.1,17,5.911,5.911,0,0,1,33,11.1Z" fill="#cb385b"/>
        </g>
      </g>
    </g>
  </g>
</svg>
