<svg xmlns="http://www.w3.org/2000/svg" width="95.002" height="92.6" viewBox="0 0 95.002 92.6">
  <g id="noun_market_2366970" transform="translate(-2.5 -3.7)">
    <g id="Group_1" data-name="Group 1">
      <path id="Path_1" data-name="Path 1" d="M97.2,24.9,88.8,7.2a6.064,6.064,0,0,0-5.6-3.5H36.7a6.087,6.087,0,0,0-5.5,3.5L22.8,24.8a3.384,3.384,0,0,0,3.1,4.8H30V43.2H61.7a10.02,10.02,0,0,1,7.7,3.7,9.721,9.721,0,0,1,1.8,8.4L67.4,71H85a5.015,5.015,0,0,0,5-5V29.7h4.1A3.408,3.408,0,0,0,97.2,24.9Z" fill="#50687f"/>
      <path id="Path_2" data-name="Path 2" d="M61.7,49.9H19.1l-1.5-6.1a3.211,3.211,0,0,0-3.1-2.4H5.7a3.2,3.2,0,0,0,0,6.4H12l7.9,31.5A3.211,3.211,0,0,0,23,81.7H55.6a3.211,3.211,0,0,0,3.1-2.4L64.8,54a3.248,3.248,0,0,0-.6-2.7A2.76,2.76,0,0,0,61.7,49.9Z" fill="#50687f"/>
      <circle id="Ellipse_1" data-name="Ellipse 1" cx="5.6" cy="5.6" r="5.6" transform="translate(21.8 85.1)" fill="#50687f"/>
      <circle id="Ellipse_2" data-name="Ellipse 2" cx="5.6" cy="5.6" r="5.6" transform="translate(44 85.1)" fill="#50687f"/>
    </g>
  </g>
</svg>
