<svg xmlns="http://www.w3.org/2000/svg" width="90" height="90" viewBox="0 0 90 90">
  <g id="Group_2" data-name="Group 2" transform="translate(-1235 -486)">
    <g id="Group_1" data-name="Group 1">
      <g id="noun_QR_Code_2247014" data-name="noun_QR Code_2247014" transform="translate(1230 481)">
        <path id="Path_1" data-name="Path 1" d="M34.79,91H9V64.92a2,2,0,0,0-4,0V93a2,2,0,0,0,2,2H34.79a2,2,0,1,0,0-4Z"/>
        <path id="Path_2" data-name="Path 2" d="M93,62.92a2,2,0,0,0-2,2V91H64.83a2,2,0,0,0,0,4H93a2,2,0,0,0,2-2V64.92A2,2,0,0,0,93,62.92Z"/>
        <path id="Path_3" data-name="Path 3" d="M93,5H65.06a2,2,0,0,0,0,4H91V34.66a2,2,0,0,0,4,0V7A2,2,0,0,0,93,5Z"/>
        <path id="Path_4" data-name="Path 4" d="M7,37a2,2,0,0,0,2-2V9H34.91a2,2,0,0,0,0-4H7A2,2,0,0,0,5,7V35A2,2,0,0,0,7,37Z"/>
        <path id="Path_5" data-name="Path 5" d="M19,20V36a2,2,0,0,0,2,2H37a2,2,0,0,0,2-2V20a2,2,0,0,0-2-2H21A2,2,0,0,0,19,20Zm4,2H35V34H23Z"/>
        <path id="Path_6" data-name="Path 6" d="M63,38H79a2,2,0,0,0,2-2V20a2,2,0,0,0-2-2H63a2,2,0,0,0-2,2V36A2,2,0,0,0,63,38Zm2-16H77V34H65Z"/>
        <path id="Path_7" data-name="Path 7" d="M37,62H21a2,2,0,0,0-2,2V80a2,2,0,0,0,2,2H37a2,2,0,0,0,2-2V64A2,2,0,0,0,37,62ZM35,78H23V66H35Z"/>
        <rect id="Rectangle_1" data-name="Rectangle 1" width="8" height="8" transform="translate(25 24)"/>
        <rect id="Rectangle_2" data-name="Rectangle 2" width="8" height="8" transform="translate(25 68)"/>
        <rect id="Rectangle_3" data-name="Rectangle 3" width="8" height="8" transform="translate(67 24)"/>
        <path id="Path_8" data-name="Path 8" d="M50,34H46V30H42v8H54V34Z"/>
        <rect id="Rectangle_4" data-name="Rectangle 4" width="4" height="4" transform="translate(34 42)"/>
        <rect id="Rectangle_5" data-name="Rectangle 5" width="4" height="4" transform="translate(38 46)"/>
        <path id="Path_9" data-name="Path 9" d="M46,42H42v4h8V42Z"/>
        <rect id="Rectangle_6" data-name="Rectangle 6" width="4" height="4" transform="translate(50 46)"/>
        <path id="Path_10" data-name="Path 10" d="M34,54v4h4V50H34Z"/>
        <rect id="Rectangle_7" data-name="Rectangle 7" width="4" height="4" transform="translate(46 50)"/>
        <rect id="Rectangle_8" data-name="Rectangle 8" width="4" height="4" transform="translate(42 54)"/>
        <path id="Path_11" data-name="Path 11" d="M18,54v4h8V54H18Z"/>
        <rect id="Rectangle_9" data-name="Rectangle 9" width="4" height="4" transform="translate(74 42)"/>
        <path id="Path_12" data-name="Path 12" d="M74,78v4h8V78H78V74H74Z"/>
        <path id="Path_13" data-name="Path 13" d="M62,46V42H58V38H54v8h8Z"/>
        <rect id="Rectangle_10" data-name="Rectangle 10" width="4" height="4" transform="translate(54 62)"/>
        <rect id="Rectangle_11" data-name="Rectangle 11" width="4" height="4" transform="translate(50 66)"/>
        <rect id="Rectangle_12" data-name="Rectangle 12" width="4" height="4" transform="translate(46 70)"/>
        <path id="Path_14" data-name="Path 14" d="M50,58H46v4H42v4h8V58Z"/>
        <rect id="Rectangle_13" data-name="Rectangle 13" width="4" height="4" transform="translate(50 54)"/>
        <rect id="Rectangle_14" data-name="Rectangle 14" width="4" height="4" transform="translate(78 46)"/>
        <rect id="Rectangle_15" data-name="Rectangle 15" width="4" height="4" transform="translate(74 50)"/>
        <rect id="Rectangle_16" data-name="Rectangle 16" width="4" height="4" transform="translate(78 54)"/>
        <path id="Path_15" data-name="Path 15" d="M54,34h4V26H54v8Z"/>
        <rect id="Rectangle_17" data-name="Rectangle 17" width="4" height="4" transform="translate(46 26)"/>
        <rect id="Rectangle_18" data-name="Rectangle 18" width="4" height="4" transform="translate(46 78)"/>
        <rect id="Rectangle_19" data-name="Rectangle 19" width="4" height="4" transform="translate(42 74)"/>
        <path id="Path_16" data-name="Path 16" d="M54,22V18H46v4h4v4h4Z"/>
        <rect id="Rectangle_20" data-name="Rectangle 20" width="4" height="4" transform="translate(58 58)"/>
        <path id="Path_17" data-name="Path 17" d="M62,70H58v4H50v4h4v4h4V78h4V70Z"/>
        <path id="Path_18" data-name="Path 18" d="M70,70H66v8h4V74h4V70Z"/>
        <rect id="Rectangle_21" data-name="Rectangle 21" width="4" height="4" transform="translate(62 54)"/>
        <rect id="Rectangle_22" data-name="Rectangle 22" width="4" height="4" transform="translate(58 50)"/>
        <path id="Path_19" data-name="Path 19" d="M70,50V42H66V54h4Z"/>
        <rect id="Rectangle_23" data-name="Rectangle 23" width="4" height="4" transform="translate(18 46)"/>
        <rect id="Rectangle_24" data-name="Rectangle 24" width="4" height="4" transform="translate(62 78)"/>
        <path id="Path_20" data-name="Path 20" d="M78,74h4V66H78v8Z"/>
        <path id="Path_21" data-name="Path 21" d="M30,46V42H22v4h4v8h4V50h4V46Z"/>
        <path id="Path_22" data-name="Path 22" d="M66,58v4h4v4h8V62H74V54H70v4Z"/>
        <path id="Path_23" data-name="Path 23" d="M66,62H62v8h4V62Z"/>
      </g>
    </g>
  </g>
</svg>
