<svg xmlns="http://www.w3.org/2000/svg" width="437.842" height="456" viewBox="0 0 437.842 456">
  <g id="Group_7" data-name="Group 7" transform="translate(-1246 -473)">
    <g id="get-money" transform="translate(1236.921 473)">
      <g id="Group_2" data-name="Group 2">
        <g id="Group_1" data-name="Group 1">
          <path id="Path_1" data-name="Path 1" d="M61.179,282h-41.2a10.926,10.926,0,0,0-10.9,10.9V445.1a10.926,10.926,0,0,0,10.9,10.9h41.2a10.926,10.926,0,0,0,10.9-10.9V292.9a10.926,10.926,0,0,0-10.9-10.9Z" fill="#50687f"/>
        </g>
      </g>
      <g id="Group_4" data-name="Group 4">
        <g id="Group_3" data-name="Group 3">
          <path id="Path_2" data-name="Path 2" d="M443.179,294.4a8.34,8.34,0,0,1-.8-1.2,17.366,17.366,0,0,0-23.6-2.1c-20,16.3-49.2,39.8-68.1,55.1a100.373,100.373,0,0,1-58.7,21.8l-51.2,1.7a25.733,25.733,0,0,1-23-12.6l-5.7-9.7a26.237,26.237,0,0,1-3.1-8.2,25.687,25.687,0,0,1,20.4-30l52.9-10a16.731,16.731,0,0,0,13.3-18.3,16.482,16.482,0,0,0-16.2-14.4h-2.1l-71.2-2.9c-24.7-.9-46,3.9-71.2,16.1l-42.8,20.7v114l35.9-6.6a.367.367,0,0,1,.3-.1c13.9-2,23.1-2.9,38.2-2.2l107.5,5a135.943,135.943,0,0,0,92.7-31.3l74.4-61.7A16.551,16.551,0,0,0,443.179,294.4Z" fill="#50687f"/>
        </g>
      </g>
      <g id="Group_6" data-name="Group 6">
        <g id="Group_5" data-name="Group 5">
          <path id="Path_3" data-name="Path 3" d="M307.379,0a110.984,110.984,0,0,0-110.8,110.8v.1A110.85,110.85,0,1,0,307.379,0Zm25.7,80h13.4a10,10,0,0,1,0,20h-13.4a44.772,44.772,0,0,1-11.7,20.6,43.1,43.1,0,0,1-28.1,12.5l37.7,35.7a9.974,9.974,0,0,1-13.7,14.5l-55.9-52.9a10.323,10.323,0,0,1-3.1-7.2,10.072,10.072,0,0,1,10-10.2h22.4a23.342,23.342,0,0,0,16.7-6.7,31.831,31.831,0,0,0,4.6-6.3h-43.7a10,10,0,0,1,0-20h43.7c-3.7-8-11.9-14-21.3-14h-22.4a10,10,0,0,1,0-20h78.2a10,10,0,0,1,0,20h-19.2a41.981,41.981,0,0,1,5.8,14Z" fill="#50687f"/>
        </g>
      </g>
    </g>
  </g>
</svg>
