<svg height="464pt" viewBox="0 0 464 464" width="464pt" xmlns="http://www.w3.org/2000/svg"><g fill="#d8d7da"><path d="m184 112h-16v-40c0-4.417969-3.582031-8-8-8h-56v-16h56c13.253906 0 24 10.746094 24 24zm0 0"/><path d="m296 112h-16v-40c0-13.253906 10.746094-24 24-24h56v16h-56c-4.417969 0-8 3.582031-8 8zm0 0"/><path d="m360 416h-56c-13.253906 0-24-10.746094-24-24v-48h16v48c0 4.417969 3.582031 8 8 8h56zm0 0"/><path d="m160 416h-56v-16h56c4.417969 0 8-3.582031 8-8v-47.527344h16v47.527344c0 13.253906-10.746094 24-24 24zm0 0"/></g><path d="m239.679688 124.160156 80.320312 43.839844-80.320312 43.839844c-4.800782 2.558594-10.558594 2.558594-15.359376 0l-80.320312-43.839844 80.320312-43.839844c4.800782-2.558594 10.558594-2.558594 15.359376 0zm0 0" fill="#46f8ff"/><path d="m232 216v125.761719c-2.679688 0-5.316406-.660157-7.679688-1.921875l-72-39.28125c-5.128906-2.828125-8.316406-8.21875-8.320312-14.078125v-118.480469l80.320312 43.839844c2.363282 1.261718 5 1.921875 7.679688 1.921875zm0 0" fill="#39c6cc"/><path d="m320 168v118.480469c-.003906 5.859375-3.191406 11.25-8.320312 14.078125l-72 39.28125c-2.363282 1.261718-5 1.921875-7.679688 1.921875v-128c2.679688 0 5.316406-.660157 7.679688-1.921875zm0 0" fill="#00b6bd"/><path d="m112 408c0 30.929688-25.070312 56-56 56s-56-25.070312-56-56 25.070312-56 56-56 56 25.070312 56 56zm0 0" fill="#d80027"/><path d="m464 408c0 30.929688-25.070312 56-56 56s-56-25.070312-56-56 25.070312-56 56-56 56 25.070312 56 56zm0 0" fill="#ffda44"/><path d="m112 56c0 30.929688-25.070312 56-56 56s-56-25.070312-56-56 25.070312-56 56-56 56 25.070312 56 56zm0 0" fill="#c2fb3b"/><path d="m464 56c0 30.929688-25.070312 56-56 56s-56-25.070312-56-56 25.070312-56 56-56 56 25.070312 56 56zm0 0" fill="#ff9811"/><path d="m48 40h16c4.417969 0 8 3.582031 8 8v16c0 4.417969-3.582031 8-8 8h-16c-4.417969 0-8-3.582031-8-8v-16c0-4.417969 3.582031-8 8-8zm0 0" fill="#fff"/><path d="m48 392h16c4.417969 0 8 3.582031 8 8v16c0 4.417969-3.582031 8-8 8h-16c-4.417969 0-8-3.582031-8-8v-16c0-4.417969 3.582031-8 8-8zm0 0" fill="#fff"/><path d="m400 392h16c4.417969 0 8 3.582031 8 8v16c0 4.417969-3.582031 8-8 8h-16c-4.417969 0-8-3.582031-8-8v-16c0-4.417969 3.582031-8 8-8zm0 0" fill="#fff"/><path d="m400 40h16c4.417969 0 8 3.582031 8 8v16c0 4.417969-3.582031 8-8 8h-16c-4.417969 0-8-3.582031-8-8v-16c0-4.417969 3.582031-8 8-8zm0 0" fill="#fff"/></svg>