<svg xmlns="http://www.w3.org/2000/svg" width="502.088" height="501.766" viewBox="0 0 502.088 501.766">
  <g id="Group_3" data-name="Group 3" transform="translate(-631 -259)">
    <g id="gift" transform="translate(631 259)">
      <g id="Group_2" data-name="Group 2" transform="translate(-21.694 -408.045)">
        <path id="Path_97" data-name="Path 97" d="M252,0,212.738,19.568c.307.167.629.3.934.477q2.409,1.359,4.705,2.908T222.85,26.2q2.176,1.7,4.236,3.527a103.08,103.08,0,0,1,7.746,7.662c2.419,2.65,4.671,5.369,6.754,8.08s4,5.414,5.732,8.031,3.3,5.147,4.678,7.514c1.38-2.366,2.938-4.9,4.668-7.525s3.633-5.337,5.7-8.061,4.313-5.458,6.721-8.123a103.078,103.078,0,0,1,7.719-7.711q2.052-1.836,4.224-3.551t4.465-3.27q2.292-1.556,4.7-2.932c.257-.146.53-.262.789-.4Zm97.74,3.344c-47.655,0-81.133,44.506-97.675,72.863C235.519,47.85,201.649,3.738,154.387,3.738c-30.326,0-51.987,18.511-51.987,43.717,0,32.011,25.034,56.011,75.229,67.152L94.906,158.291l-.383-.193V426.5l63.016,31.51V189.6l94.524-51.2,94.523,51.2V456.287L409.6,424.779V158.1l-85.549-44.959c51.062-13.054,77.672-39.469,77.672-65.289A41.592,41.592,0,0,0,396.6,27.369C388.333,12.4,370.61,3.344,349.736,3.344ZM339.1,42.729c9.058,0,15.359,5.121,15.359,11.816,0,5.515-3.937,13.784-14.965,21.268-8.665,5.514-23.237,12.209-48.049,14.178C300.505,70.692,317.441,42.729,339.1,42.729Zm-174.079,0c21.268,0,38.2,27.963,47.655,47.262-24.812-1.97-39.385-8.667-48.049-14.18C153.6,68.328,149.66,60.057,149.66,54.543c0-6.693,6.3-11.813,15.363-11.813Zm3.872,8.75a11.216,11.216,0,0,0-3.354.486,8.234,8.234,0,0,0-2.617,1.344,6.565,6.565,0,0,0-.977.938,5.785,5.785,0,0,0-.724,1.084,5.389,5.389,0,0,0-.453,1.207,5.487,5.487,0,0,0-.155,1.309,8.078,8.078,0,0,0,.424,2.479,12.492,12.492,0,0,0,1.381,2.855,18.183,18.183,0,0,0,2.494,3.057,25.942,25.942,0,0,0,3.768,3.074,40.2,40.2,0,0,0,4.136,2.3,46.847,46.847,0,0,0,5.549,2.238,59.086,59.086,0,0,0,7.184,1.883q2.018.4,4.271.713t4.76.512c-1.274-2.6-2.8-5.5-4.551-8.371-.875-1.438-1.808-2.87-2.793-4.262s-2.023-2.741-3.111-4.008a38.354,38.354,0,0,0-3.41-3.519,25.933,25.933,0,0,0-3.688-2.8,19.467,19.467,0,0,0-1.943-1.059,16.435,16.435,0,0,0-2.006-.791,14.356,14.356,0,0,0-2.064-.5,13.263,13.263,0,0,0-2.114-.168Zm165.968,1.248a13.132,13.132,0,0,0-2.067.164,14.044,14.044,0,0,0-2.009.475,15.954,15.954,0,0,0-1.947.758,18.762,18.762,0,0,0-1.883,1.014,24.747,24.747,0,0,0-3.561,2.684,36.054,36.054,0,0,0-3.277,3.371c-1.042,1.214-2.033,2.507-2.971,3.84s-1.82,2.7-2.646,4.082a90.375,90.375,0,0,0-4.246,8.018q2.4-.191,4.56-.49t4.092-.684a56.588,56.588,0,0,0,6.881-1.8,44.774,44.774,0,0,0,5.316-2.145,38.436,38.436,0,0,0,3.961-2.2,24.943,24.943,0,0,0,3.612-2.947,17.418,17.418,0,0,0,2.388-2.926,11.993,11.993,0,0,0,1.323-2.736,7.752,7.752,0,0,0,.406-2.373,5.311,5.311,0,0,0-.15-1.256,5.256,5.256,0,0,0-.432-1.156,5.6,5.6,0,0,0-.693-1.039,6.254,6.254,0,0,0-.936-.9,7.889,7.889,0,0,0-2.508-1.287,10.742,10.742,0,0,0-3.211-.465ZM89.973,68.711,0,113.557v70.877L81.783,224.3V154.787l.879-.463L155.8,115.889q-8.284-2.118-15.572-4.754a136.814,136.814,0,0,1-13.567-5.7,107.027,107.027,0,0,1-11.539-6.5,82.631,82.631,0,0,1-9.49-7.156q-2.115-1.86-3.969-3.781t-3.451-3.893q-1.594-1.971-2.926-3.986a45.594,45.594,0,0,1-2.4-4.062,40.758,40.758,0,0,1-1.871-4.123C90.6,70.869,90.281,69.79,89.973,68.711Zm322.142,0c-.308,1.079-.625,2.158-1.041,3.23a40.7,40.7,0,0,1-1.871,4.123,45.584,45.584,0,0,1-2.4,4.063q-1.332,2.014-2.926,3.986t-3.449,3.893q-1.855,1.92-3.971,3.781a82.633,82.633,0,0,1-9.49,7.156,107.035,107.035,0,0,1-11.539,6.5,136.823,136.823,0,0,1-13.567,5.7q-7.285,2.624-15.57,4.754l73.135,38.435.881.463V224.3l81.781-39.871V113.557Zm-160.052,79.8L166.4,193.82v74.059l84.243,41.328,85.656-41.76V193.82ZM12.357,209.48V381.959c44.758,22.379,72.931,36.463,72.932,36.463V245.26Zm479.633,0-72.931,35.78V418.422s28.173-14.084,72.931-36.463ZM166.678,285.967V462.42l78.689,39.346V324.584l-.678-.344Zm169.908,0L258.572,324.24l-.676.344V501.766l78.69-39.346Z" transform="translate(21.694 408.045)" fill="#50687f"/>
      </g>
    </g>
  </g>
</svg>
