<svg xmlns="http://www.w3.org/2000/svg" width="123" height="123" viewBox="0 0 123 123">
  <g id="Group_3" data-name="Group 3" transform="translate(-802.5 -340)">
    <g id="Group_2" data-name="Group 2">
      <g id="Group_1" data-name="Group 1">
        <g id="noun_key_team_2394232" data-name="noun_key team_2394232" transform="translate(800 337.5)">
          <g id="Layer_23" data-name="Layer 23">
            <path id="Path_75" data-name="Path 75" d="M64,125.5A61.5,61.5,0,1,1,125.5,64,61.5,61.5,0,0,1,64,125.5Zm0-120A58.5,58.5,0,1,0,122.5,64,58.5,58.5,0,0,0,64,5.5Z" fill="#cb385b"/>
            <path id="Path_76" data-name="Path 76" d="M40.02,67.762a4.577,4.577,0,0,0,2.933-1.931,4.381,4.381,0,0,0,.671-3.359,4.587,4.587,0,0,0-4.513-3.613,4.716,4.716,0,0,0-.909.088,4.577,4.577,0,0,0-2.933,1.931,4.381,4.381,0,0,0-.67,3.359,4.609,4.609,0,0,0,5.421,3.525Z" fill="#cb385b"/>
            <path id="Path_77" data-name="Path 77" d="M29.438,73.539a.35.35,0,0,1,.018.455L27.87,76.02a2.026,2.026,0,0,0,.371,2.857,2.051,2.051,0,0,0,1.254.431,2.007,2.007,0,0,0,.265-.017,2.042,2.042,0,0,0,1.363-.768l1.567-2a.361.361,0,0,1,.459-.094,14.045,14.045,0,0,0,4.66,1.555l.814.12.025-1.254a.359.359,0,0,1,.321-.347l7.251-.793.268-7.141a.352.352,0,0,1,.1-.229l7.272-7.675-.428-.484a.343.343,0,0,1-.072-.13,14.007,14.007,0,0,0-3.115-5.457.351.351,0,0,1-.018-.455l1.586-2.026a2.027,2.027,0,0,0-.373-2.858,2.066,2.066,0,0,0-2.881.355l-1.567,2a.36.36,0,0,1-.46.094,14.051,14.051,0,0,0-6.14-1.7.359.359,0,0,1-.342-.311l-.322-2.484a2.029,2.029,0,0,0-.783-1.354,2.059,2.059,0,0,0-1.519-.415,2.033,2.033,0,0,0-1.36.764,2,2,0,0,0-.416,1.507l.322,2.484a.355.355,0,0,1-.254.386A13.862,13.862,0,0,0,30.2,53.715a.365.365,0,0,1-.47.022l-2.028-1.557a2.089,2.089,0,0,0-1.522-.414A2.027,2.027,0,0,0,25.2,55.39l2.054,1.577a.353.353,0,0,1,.1.447,13.806,13.806,0,0,0-1.624,6.038.356.356,0,0,1-.316.34l-2.61.322a2.034,2.034,0,0,0-1.36.763,2,2,0,0,0-.416,1.507,2.06,2.06,0,0,0,2.3,1.769l2.656-.325a.362.362,0,0,1,.345.254,14.007,14.007,0,0,0,3.115,5.457Zm4.628-13.45a6.095,6.095,0,0,1,10.975,2.1,5.781,5.781,0,0,1-.884,4.431A6.012,6.012,0,0,1,40.3,69.158a6.209,6.209,0,0,1-1.191.116,6.036,6.036,0,0,1-5.93-4.754,5.781,5.781,0,0,1,.884-4.431Z" fill="#cb385b"/>
            <path id="Path_78" data-name="Path 78" d="M106.981,44.407a22.526,22.526,0,0,0-7.455-15.916,23.728,23.728,0,0,0-33.011,1.2A22.639,22.639,0,0,0,62.08,54.6a1.056,1.056,0,0,1-.2,1.161L56.721,61.2h0L48.64,69.731l-.264,7.05a1.075,1.075,0,0,1-.964,1.022l-6.615.723-.126,6.368a1.075,1.075,0,0,1-1,1.044l-6.308.468-.125,6.334a1.075,1.075,0,0,1-1.043,1.046L26.235,94l.2,11.607,12.47-.7L73.892,67.99a1.093,1.093,0,0,1,1.152-.279c8.5,2.949,19.067.111,25.71-6.9a22.457,22.457,0,0,0,6.227-16.405Zm-3.216,7.41a1.093,1.093,0,0,1-.767.316l-9.926.019.011,2.141a1.058,1.058,0,0,1-.315.758,1.093,1.093,0,0,1-.767.316L74.868,55.4h0a1.076,1.076,0,0,1-1.085-1.062l-.011-2.148-9.932.019h0a1.076,1.076,0,0,1-1.084-1.062l-.011-2.3a6.7,6.7,0,0,1,3.082-5.664,4.762,4.762,0,0,1,.68-5.988,5.126,5.126,0,0,1,3.628-1.482h.01a5.023,5.023,0,0,1,5.1,4.9,4.748,4.748,0,0,1-.724,2.541,6.935,6.935,0,0,1,1.807,1.725,8.9,8.9,0,0,1,1.87-1.432,6.211,6.211,0,0,1,.555-8.24,6.477,6.477,0,0,1,4.581-1.879h.014a6.429,6.429,0,0,1,6.483,6.318,6.183,6.183,0,0,1-1.263,3.778,8.968,8.968,0,0,1,1.887,1.426,6.871,6.871,0,0,1,1.786-1.728,4.763,4.763,0,0,1,.685-5.978,5.127,5.127,0,0,1,3.629-1.483h.01a5.025,5.025,0,0,1,5.1,4.9,4.749,4.749,0,0,1-.73,2.552,6.74,6.74,0,0,1,3.138,5.648l.011,2.3a1.059,1.059,0,0,1-.315.757Z" fill="#cb385b"/>
            <path id="Path_79" data-name="Path 79" d="M94.521,43h0a3.279,3.279,0,0,0,.32.227c.052.031.106.058.16.084l.16-.319-.09.354a2.908,2.908,0,0,0,.307.143c.071.027.145.047.219.067l.131.037a2.412,2.412,0,0,0,.235.061,3.817,3.817,0,0,0,.626.058,3.516,3.516,0,0,0,.618-.059,2.623,2.623,0,0,0,.275-.073l-.107-.34.224.307a1.951,1.951,0,0,0,.187-.058,3.738,3.738,0,0,0,.4-.189c.05-.025.1-.05.147-.079a3.191,3.191,0,0,0,.308-.22l.061-.047a2.367,2.367,0,0,0,.239-.2,3.031,3.031,0,0,0,.914-2.181,3.232,3.232,0,0,0-3.3-3.129A3.317,3.317,0,0,0,94.2,38.4a3.032,3.032,0,0,0-.913,2.18A3.081,3.081,0,0,0,94.521,43Z" fill="#cb385b"/>
            <path id="Path_80" data-name="Path 80" d="M80.479,43.229a5.165,5.165,0,0,0,.653.425,4.523,4.523,0,0,0,.619.273l.144.051a4.651,4.651,0,0,0,.638.161l.141.021a4.741,4.741,0,0,0,.711.057,4.851,4.851,0,0,0,.734-.063l.095-.014a4.668,4.668,0,0,0,.667-.17l.1-.035A4.705,4.705,0,0,0,86.3,43.2a4.584,4.584,0,0,0,.388-.341,4.456,4.456,0,0,0,1.334-3.207,4.695,4.695,0,0,0-7.99-3.194A4.454,4.454,0,0,0,78.7,39.669,4.515,4.515,0,0,0,80.479,43.229Z" fill="#cb385b"/>
            <path id="Path_81" data-name="Path 81" d="M73.138,44.411l-.189-.1-.181.116a4.806,4.806,0,0,1-1.853.694l-.11.016a5.044,5.044,0,0,1-1.263,0l-.143-.021a5.391,5.391,0,0,1-.6-.129,4.772,4.772,0,0,1-.589-.217l-.092-.043a5.045,5.045,0,0,1-.534-.285l-.183-.129-.2.106a4.974,4.974,0,0,0-2.657,4.419l.008,1.589,9.262-.017.334-.06.049-.4c.023-.171.051-.341.083-.508l.017-.092c.011-.059.022-.117.036-.176.053-.236.115-.467.188-.695l.086-.234c.058-.163.12-.324.187-.482q.06-.139.127-.277c.073-.155.152-.307.235-.457l.178-.328-.091-.171a5.1,5.1,0,0,0-2.109-2.114Z" fill="#cb385b"/>
            <path id="Path_82" data-name="Path 82" d="M68.118,43.06a3.432,3.432,0,0,0,.3.211c.054.033.113.061.171.09l.161-.318-.051.373c.084.042.168.083.258.119s.172.055.261.079l.15-.329h0l-.035.36a1.844,1.844,0,0,0,.207.054,3.389,3.389,0,0,0,.63.06,3.5,3.5,0,0,0,.616-.059,2.217,2.217,0,0,0,.243-.063l.135-.038a2.072,2.072,0,0,0,.205-.064,3.129,3.129,0,0,0,.325-.152l-.168-.315.238.279c.051-.026.1-.051.152-.082a3.261,3.261,0,0,0,.3-.213L72.283,43a2.311,2.311,0,0,0,.239-.2,3.032,3.032,0,0,0,.913-2.18,3.231,3.231,0,0,0-3.3-3.129,3.319,3.319,0,0,0-2.35.957,3.032,3.032,0,0,0-.913,2.18,3.078,3.078,0,0,0,1.247,2.431Z" fill="#cb385b"/>
            <path id="Path_83" data-name="Path 83" d="M99.558,44.359l-.189-.1-.18.116a4.746,4.746,0,0,1-.6.325,4.851,4.851,0,0,1-1.242.369l-.12.017a5.16,5.16,0,0,1-1.264,0l-.135-.02a5.161,5.161,0,0,1-.6-.129,4.856,4.856,0,0,1-.6-.219l-.084-.039a5.194,5.194,0,0,1-.537-.287l-.185-.13-.2.108a5.047,5.047,0,0,0-2.085,2.118l-.09.172.183.33c.085.15.164.3.241.458q.066.134.126.271c.071.162.136.327.2.494l.084.22c.076.229.141.462.2.7.015.063.027.124.039.188l.015.075c.035.17.065.341.09.513l.065.462,9.585-.019-.008-1.585A5.021,5.021,0,0,0,99.558,44.359Z" fill="#cb385b"/>
            <path id="Path_84" data-name="Path 84" d="M91.026,49.334,91,49.22c-.015-.071-.03-.14-.052-.21-.035-.112-.08-.22-.126-.328l-.106-.269c-.044-.118-.088-.236-.143-.35-.035-.071-.075-.138-.116-.206l-.1-.18c-.094-.171-.188-.342-.3-.5a7.147,7.147,0,0,0-3.015-2.525l-.18-.08-.166.106a6.141,6.141,0,0,1-2.361.885l-.144.021a5.563,5.563,0,0,1-1.594.006c-.078-.01-.156-.022-.234-.035-.193-.031-.383-.072-.57-.121l-.2-.051a6.024,6.024,0,0,1-.677-.248c-.049-.021-.1-.044-.143-.067l-.072-.034c-.181-.087-.356-.181-.526-.284-.026-.016-.053-.03-.11-.058l-.166-.1-.179.081A7.079,7.079,0,0,0,76.732,47.2c-.107.161-.2.329-.288.5l-.1.176c-.042.072-.083.143-.117.216-.065.137-.116.279-.168.421l-.1.254c-.036.089-.072.178-.1.27-.045.15-.076.3-.106.455l-.058.265c-.022.088-.043.175-.056.265a8.027,8.027,0,0,0-.064.894,1.25,1.25,0,0,0-.008.129l.013,2.579,2.679,0-.008-1.587a.723.723,0,1,1,1.445-.008l.008,1.592,7.441-.015-.007-1.587a.705.705,0,0,1,.209-.5.727.727,0,0,1,.514-.211.719.719,0,0,1,.723.708l.007,1.591,2.679,0-.013-2.576a6.765,6.765,0,0,0-.234-1.678Z" fill="#cb385b"/>
          </g>
        </g>
      </g>
    </g>
  </g>
</svg>
