<svg xmlns="http://www.w3.org/2000/svg" width="85.081" height="80.139" viewBox="0 0 85.081 80.139">
  <g id="Group_1" data-name="Group 1" transform="translate(-417.953 -319)">
    <g id="noun_international_territory_1247808" data-name="noun_international territory_1247808" transform="translate(410 307.57)">
      <path id="Path_109" data-name="Path 109" d="M81.09,45.083a36.843,36.843,0,0,1-3.561,2.358,33.09,33.09,0,0,1,.678,4.923h-12.4a44.219,44.219,0,0,0-2.1-11.666h3.011c-.356-1.393-.635-2.777-.846-4H62.188a44.52,44.52,0,0,0-4.89-8.515,2,2,0,0,0-3.229,2.362A40.575,40.575,0,0,1,57.781,36.7H47.119V26.872a2,2,0,1,0-4,0V36.7H32.455a40.465,40.465,0,0,1,3.71-6.153,2,2,0,1,0-3.228-2.362A44.419,44.419,0,0,0,28.049,36.7H17.109a33.084,33.084,0,0,1,47.876-8.807,40.192,40.192,0,0,1,.141-4.769,37.15,37.15,0,1,0,13.141,48.04,2.052,2.052,0,0,0,.214-.417A37.129,37.129,0,0,0,81.09,45.083ZM47.119,40.7H59.477A40.111,40.111,0,0,1,61.8,52.364H47.118Zm0,15.665H61.81a40.485,40.485,0,0,1-2.319,11.67H47.118ZM30.759,40.7h12.36V52.364H28.431A40.276,40.276,0,0,1,30.759,40.7Zm12.36,15.665V68.034H30.747a40.5,40.5,0,0,1-2.321-11.672H43.119Zm2,31.2A33.137,33.137,0,0,1,14.942,40.7H26.527a44.368,44.368,0,0,0-2.1,11.666H17.1a2,2,0,1,0,0,4h7.32a44.458,44.458,0,0,0,2.111,11.672H23a2,2,0,0,0,0,4h5.034A44.28,44.28,0,0,0,34.52,82.662a2,2,0,1,0,3.086-2.544,40.265,40.265,0,0,1-5.171-8.082H43.119v9.907a2,2,0,0,0,4,0V72.035H57.8a40.286,40.286,0,0,1-5.171,8.085,2,2,0,1,0,3.086,2.544A44.287,44.287,0,0,0,62.2,72.034H73.183A33.163,33.163,0,0,1,45.117,87.566ZM75.335,68.033H63.707a44.427,44.427,0,0,0,2.11-11.669h12.4a32.884,32.884,0,0,1-2.882,11.669Zm9.5-55.843a12.428,12.428,0,0,0-15.97,7.45c-1.12,3.08-1.19,9.22-.181,15.64,1.19,7.55,3.1,10.64,3.78,10.89a.952.952,0,0,0,.21.02c4.04,0,17.24-11.5,19.61-18.03A12.473,12.473,0,0,0,84.83,12.19ZM87,26.082a6.791,6.791,0,1,1-4.059-8.7A6.791,6.791,0,0,1,87,26.082Z" fill="#50687f"/>
    </g>
  </g>
</svg>
